<svg width="19" height="20" viewBox="0 0 19 20" fill="none" xmlns="http://www.w3.org/2000/svg">
<path d="M9.35077 0C8.87 0 8.39231 0.161539 7.98077 0.456923L6.70692 1.34615L5.23923 1.53846H5.21538L5.19154 1.56231C4.71018 1.67101 4.26949 1.91391 3.92055 2.26286C3.5716 2.6118 3.3287 3.05249 3.22 3.53385L3.19692 3.55769V3.58154L3.00462 5.07231L2.11538 6.22615L2.09077 6.25V6.27385C1.55308 7.13308 1.52923 8.24231 2.11538 9.06231L3.02846 10.3362L3.26923 11.6592L0.793077 15.4323L0 16.6108H3.67769L4.56692 18.6777L5.12 20L5.91308 18.7977L8.34077 15.1438C8.99308 15.4115 9.72923 15.4362 10.3608 15.1438L12.7885 18.7977L13.5815 20L14.1346 18.6777L15.0238 16.6108H18.7015L17.9085 15.4323L15.5046 11.7792L15.6969 10.3369L16.5862 9.06308L16.6108 9.03923V9.01538C17.1485 8.15615 17.1723 7.07077 16.5862 6.25077L15.6969 4.97615L15.4085 3.53385H15.4323C15.4292 3.51538 15.4115 3.50308 15.4085 3.48538C15.27 2.47923 14.4738 1.66231 13.4615 1.53846H13.4369L11.9946 1.34615L10.7208 0.456923C10.3229 0.165475 9.84391 0.00571428 9.35077 0ZM14.6631 13.2692L15.8415 15.0723H13.9892L13.7969 15.5531L13.2685 16.7785L11.6338 14.2785L11.9938 14.0146L13.5092 13.75V13.7738C13.5269 13.7708 13.5385 13.7531 13.5569 13.75C13.9618 13.6916 14.3443 13.5256 14.6631 13.2692ZM4.03846 13.2931C4.37248 13.5967 4.7921 13.7899 5.24 13.8462H5.26385L6.73077 14.0385L7.06692 14.3031L5.43231 16.7785L4.90385 15.5531L4.71154 15.0723H2.86077L4.03846 13.2931Z" fill="#F6303F"/>
</svg>
