<svg width="24" height="18" viewBox="0 0 24 18" fill="none" xmlns="http://www.w3.org/2000/svg">
<path d="M3.85742 14.7841V10.4959L9.01093 13.4546C9.79035 13.9022 10.6735 14.1377 11.5723 14.1377C12.4711 14.1377 13.3542 13.9022 14.1336 13.4546L19.2871 10.4972V14.7841C19.2872 14.8686 19.2707 14.9523 19.2385 15.0304C19.2063 15.1085 19.159 15.1795 19.0994 15.2393L19.0968 15.2406L19.0942 15.2444L19.0852 15.2521L19.0556 15.2804L18.9528 15.3756C18.8271 15.4858 18.698 15.5922 18.5657 15.6945C18.1039 16.0491 17.6132 16.3643 17.0986 16.6369C15.3969 17.5396 13.4985 18.0078 11.5723 17.9999C9.64596 18.0078 7.74757 17.5396 6.04586 16.6369C5.53178 16.3643 5.04145 16.049 4.58004 15.6945C4.41037 15.5637 4.24649 15.4255 4.08886 15.2804L4.05929 15.2521C3.99628 15.1914 3.94598 15.1188 3.91132 15.0384C3.87666 14.9581 3.85834 14.8716 3.85742 14.7841ZM22.8218 6.9844L13.4932 12.3398C12.9087 12.6755 12.2464 12.8521 11.5723 12.8521C10.8982 12.8521 10.2358 12.6755 9.65126 12.3398L1.28581 7.5373V13.4983C1.28581 13.6688 1.21807 13.8323 1.0975 13.9529C0.976936 14.0735 0.813411 14.1412 0.642903 14.1412C0.472394 14.1412 0.30887 14.0735 0.188302 13.9529C0.0677343 13.8323 9.89172e-08 13.6688 9.89171e-08 13.4983V6.42636C-6.41904e-05 6.31045 0.0312104 6.19668 0.0905136 6.09709C0.149817 5.99749 0.234943 5.91578 0.336881 5.86061L9.65126 0.512945C10.2357 0.176869 10.8981 0 11.5723 0C12.2464 0 12.9088 0.176869 13.4932 0.512945L22.8218 5.86961C22.9198 5.92595 23.0012 6.00715 23.0579 6.10501C23.1145 6.20288 23.1443 6.31394 23.1443 6.42701C23.1443 6.54007 23.1145 6.65114 23.0579 6.749C23.0012 6.84687 22.9198 6.92806 22.8218 6.9844Z" fill="#F6303F"/>
</svg>
