<svg width="23" height="23" viewBox="0 0 23 23" fill="none" xmlns="http://www.w3.org/2000/svg">
<path d="M5.50144 0.910519C5.50144 0.728135 5.42899 0.553221 5.30002 0.424256C5.17106 0.295291 4.99614 0.222839 4.81376 0.222839C4.63137 0.222839 4.45646 0.295291 4.3275 0.424256C4.19853 0.553221 4.12608 0.728135 4.12608 0.910519V1.5982H2.75072C2.02118 1.5982 1.32153 1.88801 0.805667 2.40387C0.289807 2.91973 0 3.61938 0 4.34892L0 5.72428H22.0058V4.34892C22.0058 3.61938 21.7159 2.91973 21.2001 2.40387C20.6842 1.88801 19.9846 1.5982 19.255 1.5982H17.8797V0.910519C17.8797 0.728135 17.8072 0.553221 17.6783 0.424256C17.5493 0.295291 17.3744 0.222839 17.192 0.222839C17.0096 0.222839 16.8347 0.295291 16.7057 0.424256C16.5768 0.553221 16.5043 0.728135 16.5043 0.910519V1.5982H5.50144V0.910519ZM22.0058 19.4779V7.09964H0V19.4779C0 20.2074 0.289807 20.9071 0.805667 21.4229C1.32153 21.9388 2.02118 22.2286 2.75072 22.2286H19.255C19.9846 22.2286 20.6842 21.9388 21.2001 21.4229C21.7159 20.9071 22.0058 20.2074 22.0058 19.4779ZM14.9282 12.4003L10.8021 16.5264C10.7382 16.5904 10.6623 16.6412 10.5788 16.6759C10.4952 16.7105 10.4056 16.7284 10.3152 16.7284C10.2247 16.7284 10.1352 16.7105 10.0516 16.6759C9.96808 16.6412 9.8922 16.5904 9.82832 16.5264L7.76528 14.4633C7.63615 14.3342 7.56361 14.159 7.56361 13.9764C7.56361 13.7938 7.63615 13.6187 7.76528 13.4896C7.89441 13.3604 8.06954 13.2879 8.25216 13.2879C8.43477 13.2879 8.60991 13.3604 8.73903 13.4896L10.3152 15.0671L13.9544 11.4265C14.0835 11.2974 14.2587 11.2248 14.4413 11.2248C14.6239 11.2248 14.799 11.2974 14.9282 11.4265C15.0573 11.5556 15.1298 11.7308 15.1298 11.9134C15.1298 12.096 15.0573 12.2711 14.9282 12.4003Z" fill="#F6303F"/>
</svg>
