<svg width="24" height="24" viewBox="0 0 24 24" fill="none" xmlns="http://www.w3.org/2000/svg">
<path d="M12.2469 -3.05176e-05C5.8537 -3.05176e-05 0.652832 5.20083 0.652832 11.5941C0.652832 17.9873 5.8537 23.1882 12.2469 23.1882C18.6402 23.1882 23.8411 17.9873 23.8411 11.5941C23.8411 5.20083 18.6402 -3.05176e-05 12.2469 -3.05176e-05ZM17.7609 17.5911C17.5725 17.7795 17.3252 17.8743 17.0779 17.8743C16.8306 17.8743 16.5831 17.7795 16.3948 17.5911L11.5639 12.7603C11.3822 12.5797 11.2808 12.3341 11.2808 12.0772V5.79703C11.2808 5.26275 11.7136 4.83091 12.2469 4.83091C12.7803 4.83091 13.2131 5.26275 13.2131 5.79703V11.6772L17.7609 16.2249C18.1387 16.6028 18.1387 17.2133 17.7609 17.5911V17.5911Z" fill="#F6303F"/>
</svg>
