<svg width="17" height="18" viewBox="0 0 17 18" fill="none" xmlns="http://www.w3.org/2000/svg">
<path d="M10.25 4.625V0.25H5.875C5.37772 0.25 4.90081 0.447544 4.54917 0.799175C4.19754 1.15081 4 1.62772 4 2.125V5.50875C5.56293 5.06417 7.2328 5.18755 8.71342 5.857C10.194 6.52646 11.3897 7.6987 12.0882 9.16581C12.7868 10.6329 12.9432 12.3 12.5295 13.8714C12.1159 15.4428 11.1591 16.8169 9.82875 17.75H14.625C15.1223 17.75 15.5992 17.5525 15.9508 17.2008C16.3025 16.8492 16.5 16.3723 16.5 15.875V6.5H12.125C11.6277 6.5 11.1508 6.30246 10.7992 5.95083C10.4475 5.59919 10.25 5.12228 10.25 4.625ZM11.5 4.625V0.5625L16.1875 5.25H12.125C11.9592 5.25 11.8003 5.18415 11.6831 5.06694C11.5658 4.94973 11.5 4.79076 11.5 4.625ZM5.875 17.75C6.61369 17.75 7.34514 17.6045 8.02759 17.3218C8.71005 17.0391 9.33015 16.6248 9.85248 16.1025C10.3748 15.5801 10.7891 14.9601 11.0718 14.2776C11.3545 13.5951 11.5 12.8637 11.5 12.125C11.5 11.3863 11.3545 10.6549 11.0718 9.97241C10.7891 9.28995 10.3748 8.66985 9.85248 8.14752C9.33015 7.62519 8.71005 7.21086 8.02759 6.92818C7.34514 6.64549 6.61369 6.5 5.875 6.5C4.38316 6.5 2.95242 7.09263 1.89752 8.14752C0.842632 9.20242 0.25 10.6332 0.25 12.125C0.25 13.6168 0.842632 15.0476 1.89752 16.1025C2.95242 17.1574 4.38316 17.75 5.875 17.75ZM8.8175 11.6825C8.93486 11.7999 9.00079 11.959 9.00079 12.125C9.00079 12.291 8.93486 12.4501 8.8175 12.5675C8.70014 12.6849 8.54097 12.7508 8.375 12.7508C8.20903 12.7508 8.04986 12.6849 7.9325 12.5675L6.5 11.1337V14.625C6.5 14.7908 6.43415 14.9497 6.31694 15.0669C6.19973 15.1842 6.04076 15.25 5.875 15.25C5.70924 15.25 5.55027 15.1842 5.43306 15.0669C5.31585 14.9497 5.25 14.7908 5.25 14.625V11.1337L3.8175 12.5675C3.70014 12.6849 3.54097 12.7508 3.375 12.7508C3.20903 12.7508 3.04986 12.6849 2.9325 12.5675C2.81514 12.4501 2.74921 12.291 2.74921 12.125C2.74921 11.959 2.81514 11.7999 2.9325 11.6825L5.4325 9.1825C5.54894 9.06616 5.70665 9.00056 5.87125 9H5.87875C6.04172 9.00074 6.1979 9.06537 6.31375 9.18L6.3175 9.18375L8.8175 11.6838V11.6825Z" fill="#F6303F"/>
</svg>
