<svg width="19" height="20" viewBox="0 0 19 20" fill="none" xmlns="http://www.w3.org/2000/svg">
<path d="M13.0993 11.4265C13.8423 11.4265 14.4958 11.8047 14.8807 12.3791H9.04596C8.41434 12.3791 7.8086 12.63 7.36197 13.0767C6.91535 13.5233 6.66444 14.129 6.66444 14.7607V18.5711C6.66444 18.7245 6.67873 18.8759 6.70731 19.0207C3.9076 18.8435 1.81472 17.83 0.486782 15.9657C0.170298 15.5219 0.000134311 14.9904 0 14.4453V13.5689C0 13.0007 0.225718 12.4558 0.627499 12.054C1.02928 11.6522 1.57421 11.4265 2.14241 11.4265H13.0993ZM7.61705 0C8.24254 -9.32055e-09 8.86191 0.123199 9.43979 0.362565C10.0177 0.60193 10.5427 0.952773 10.985 1.39506C11.4273 1.83735 11.7782 2.36242 12.0175 2.9403C12.2569 3.51818 12.3801 4.13755 12.3801 4.76304C12.3801 5.38853 12.2569 6.0079 12.0175 6.58577C11.7782 7.16365 11.4273 7.68873 10.985 8.13102C10.5427 8.57331 10.0177 8.92415 9.43979 9.16351C8.86191 9.40288 8.24254 9.52608 7.61705 9.52608C6.35382 9.52608 5.14232 9.02426 4.24907 8.13102C3.35583 7.23777 2.85401 6.02628 2.85401 4.76304C2.85401 3.4998 3.35583 2.28831 4.24907 1.39506C5.14232 0.501819 6.35382 0 7.61705 0ZM7.61705 14.7607C7.61705 14.3817 7.7676 14.0182 8.03557 13.7503C8.30354 13.4823 8.66699 13.3317 9.04596 13.3317H16.6668C17.0458 13.3317 17.4092 13.4823 17.6772 13.7503C17.9452 14.0182 18.0957 14.3817 18.0957 14.7607V18.5711C18.0957 18.9501 17.9452 19.3135 17.6772 19.5815C17.4092 19.8495 17.0458 20 16.6668 20H9.04596C8.66699 20 8.30354 19.8495 8.03557 19.5815C7.7676 19.3135 7.61705 18.9501 7.61705 18.5711V14.7607ZM17.1431 15.237C16.8905 15.237 16.6482 15.1366 16.4695 14.958C16.2909 14.7793 16.1905 14.537 16.1905 14.2844H15.2379C15.2379 14.7896 15.4386 15.2742 15.7959 15.6315C16.1532 15.9888 16.6378 16.1896 17.1431 16.1896V15.237ZM17.1431 17.1422C16.6378 17.1422 16.1532 17.3429 15.7959 17.7002C15.4386 18.0575 15.2379 18.5421 15.2379 19.0474H16.1905C16.1905 18.7947 16.2909 18.5524 16.4695 18.3738C16.6482 18.1951 16.8905 18.0948 17.1431 18.0948V17.1422ZM9.52227 14.2844C9.52227 14.537 9.4219 14.7793 9.24325 14.958C9.06461 15.1366 8.82231 15.237 8.56966 15.237V16.1896C9.07495 16.1896 9.55955 15.9888 9.91685 15.6315C10.2741 15.2742 10.4749 14.7896 10.4749 14.2844H9.52227ZM10.4749 19.0474C10.4749 18.5421 10.2741 18.0575 9.91685 17.7002C9.55955 17.3429 9.07495 17.1422 8.56966 17.1422V18.0948C8.82231 18.0948 9.06461 18.1951 9.24325 18.3738C9.4219 18.5524 9.52227 18.7947 9.52227 19.0474H10.4749ZM14.5235 16.6659C14.5235 16.2237 14.3478 15.7997 14.0352 15.4871C13.7226 15.1744 13.2985 14.9988 12.8564 14.9988C12.4143 14.9988 11.9902 15.1744 11.6776 15.4871C11.365 15.7997 11.1893 16.2237 11.1893 16.6659C11.1893 17.108 11.365 17.532 11.6776 17.8447C11.9902 18.1573 12.4143 18.3329 12.8564 18.3329C13.2985 18.3329 13.7226 18.1573 14.0352 17.8447C14.3478 17.532 14.5235 17.108 14.5235 16.6659Z" fill="#F6303F"/>
</svg>
