<svg width="27" height="25" viewBox="0 0 27 25" fill="none" xmlns="http://www.w3.org/2000/svg">
<path d="M9.42882 22.1414V18.3297L14.0097 20.9596C14.7025 21.3575 15.4875 21.5669 16.2864 21.5669C17.0854 21.5669 17.8704 21.3575 18.5632 20.9596L23.1441 18.3309V22.1414C23.1442 22.2165 23.1295 22.2909 23.1009 22.3603C23.0723 22.4298 23.0302 22.4929 22.9772 22.546L22.9749 22.5472L22.9726 22.5506L22.9646 22.5575L22.9383 22.5826L22.8469 22.6672C22.7352 22.7652 22.6205 22.8597 22.5029 22.9506C22.0924 23.2658 21.6561 23.5461 21.1988 23.7884C19.6862 24.5908 17.9987 25.007 16.2864 24.9999C14.5742 25.007 12.8867 24.5908 11.3741 23.7884C10.9171 23.546 10.4813 23.2658 10.0711 22.9506C9.92033 22.8344 9.77466 22.7116 9.63454 22.5826L9.60826 22.5575C9.55225 22.5035 9.50753 22.4389 9.47673 22.3675C9.44592 22.296 9.42963 22.2192 9.42882 22.1414ZM26.286 15.2084L17.994 19.9687C17.4744 20.2671 16.8856 20.4241 16.2864 20.4241C15.6872 20.4241 15.0985 20.2671 14.5789 19.9687L7.14294 15.6998V20.9985C7.14294 21.15 7.08273 21.2954 6.97556 21.4026C6.86839 21.5097 6.72303 21.57 6.57147 21.57C6.41991 21.57 6.27455 21.5097 6.16738 21.4026C6.06021 21.2954 6 21.15 6 20.9985V14.7123C5.99994 14.6093 6.02774 14.5082 6.08046 14.4196C6.13317 14.3311 6.20884 14.2585 6.29945 14.2094L14.5789 9.45595C15.0984 9.15722 15.6872 9 16.2864 9C16.8857 9 17.4745 9.15722 17.994 9.45595L26.286 14.2174C26.3732 14.2675 26.4455 14.3397 26.4959 14.4267C26.5462 14.5137 26.5727 14.6124 26.5727 14.7129C26.5727 14.8134 26.5462 14.9121 26.4959 14.9991C26.4455 15.0861 26.3732 15.1583 26.286 15.2084Z" fill="#F6303F"/>
<path d="M6.45 5.25C6.15 5.175 5.85 5.025 5.625 4.8C5.4 4.725 5.325 4.5 5.325 4.35C5.325 4.2 5.4 3.975 5.55 3.9C5.775 3.75 6 3.6 6.225 3.675C6.675 3.675 7.05 3.9 7.275 4.2L7.95 3.3C7.725 3.075 7.5 2.925 7.275 2.775C7.05 2.625 6.75 2.55 6.45 2.55V1.5H5.55V2.55C5.175 2.625 4.8 2.85 4.5 3.15C4.2 3.525 3.975 3.975 4.05 4.425C4.05 4.875 4.2 5.325 4.5 5.625C4.875 6 5.4 6.225 5.85 6.45C6.075 6.525 6.375 6.675 6.6 6.825C6.75 6.975 6.825 7.2 6.825 7.425C6.825 7.65 6.75 7.875 6.6 8.1C6.375 8.325 6.075 8.4 5.85 8.4C5.55 8.4 5.175 8.325 4.95 8.1C4.725 7.95 4.5 7.725 4.35 7.5L3.6 8.325C3.825 8.625 4.05 8.85 4.35 9.075C4.725 9.3 5.175 9.525 5.625 9.525V10.5H6.45V9.375C6.9 9.3 7.275 9.075 7.575 8.775C7.95 8.4 8.175 7.8 8.175 7.275C8.175 6.825 8.025 6.3 7.65 6C7.275 5.625 6.9 5.4 6.45 5.25ZM6 0C2.7 0 0 2.7 0 6C0 9.3 2.7 12 6 12C9.3 12 12 9.3 12 6C12 2.7 9.3 0 6 0ZM6 11.175C3.15 11.175 0.825 8.85 0.825 6C0.825 3.15 3.15 0.825 6 0.825C8.85 0.825 11.175 3.15 11.175 6C11.175 8.85 8.85 11.175 6 11.175Z" fill="#F6303F"/>
</svg>
