<svg width="31" height="25" viewBox="0 0 31 25" fill="none" xmlns="http://www.w3.org/2000/svg">
<path d="M9.68528 11.8674C11.266 11.8674 12.782 11.2422 13.8998 10.1294C15.0175 9.01666 15.6455 7.5074 15.6455 5.93369C15.6455 4.35998 15.0175 2.85072 13.8998 1.73794C12.782 0.625155 11.266 0 9.68528 0C8.10454 0 6.58855 0.625155 5.4708 1.73794C4.35305 2.85072 3.72511 4.35998 3.72511 5.93369C3.72511 7.5074 4.35305 9.01666 5.4708 10.1294C6.58855 11.2422 8.10454 11.8674 9.68528 11.8674ZM23.0957 11.8674C24.2812 11.8674 25.4182 11.3985 26.2565 10.5639C27.0948 9.72934 27.5658 8.5974 27.5658 7.41711C27.5658 6.23683 27.0948 5.10489 26.2565 4.2703C25.4182 3.43571 24.2812 2.96685 23.0957 2.96685C21.9101 2.96685 20.7731 3.43571 19.9348 4.2703C19.0965 5.10489 18.6255 6.23683 18.6255 7.41711C18.6255 8.5974 19.0965 9.72934 19.9348 10.5639C20.7731 11.3985 21.9101 11.8674 23.0957 11.8674ZM2.79383 14.0925C2.05286 14.0925 1.34224 14.3856 0.818294 14.9072C0.294349 15.4288 0 16.1363 0 16.8739V17.8011C0 17.8011 0 24.4765 9.68528 24.4765C19.3706 24.4765 19.3706 17.8011 19.3706 17.8011V16.8739C19.3706 16.1363 19.0762 15.4288 18.5523 14.9072C18.0283 14.3856 17.3177 14.0925 16.5767 14.0925H2.79383ZM19.1277 22.3174C20.1528 22.7312 21.4514 22.993 23.0949 22.993C30.9176 22.993 30.9176 17.0594 30.9176 17.0594V16.8739C30.9176 16.1364 30.6234 15.429 30.0996 14.9074C29.5758 14.3858 28.8654 14.0927 28.1246 14.0925H19.8228C20.4927 14.8656 20.8606 15.8529 20.8591 16.8739V17.8344L20.8584 17.8767C20.854 18.0207 20.8441 18.1644 20.8286 18.3077C20.7916 18.6387 20.7316 18.9669 20.649 19.2897C20.3669 20.3962 19.8479 21.429 19.1277 22.3174Z" fill="#F6303F"/>
</svg>
