<svg width="98" height="43" viewBox="0 0 98 43" fill="none" xmlns="http://www.w3.org/2000/svg">
<path d="M66.5475 4.99444C66.6872 4.58503 66.7579 4.1523 66.7566 3.71647C66.7897 2.78458 66.4771 1.87646 65.887 1.19014C65.5804 0.859133 65.2124 0.600715 64.8067 0.431323C64.401 0.261931 63.9665 0.185374 63.5315 0.206754C62.8648 0.202044 62.2152 0.431756 61.6824 0.860477C61.149 1.28374 60.7326 1.85337 60.4772 2.50923L48.6282 34.1205L36.7902 2.52692C36.5368 1.87146 36.1222 1.30178 35.5905 0.87816C35.0552 0.450161 34.404 0.220606 33.7358 0.224438C33.3008 0.204155 32.8667 0.281115 32.4611 0.450444C32.0555 0.619774 31.6874 0.877707 31.3803 1.20782C30.7902 1.89414 30.4776 2.80226 30.5107 3.73415C30.5085 4.17058 30.5813 4.60368 30.7254 5.01198L43.9723 39.3969V39.4264C45.073 42.0292 46.7955 42.5768 48.0393 42.5768H49.217C50.4607 42.5768 52.1724 42.0292 53.2841 39.4264L66.5365 5.04145L66.5475 4.99444Z" fill="#D2202C"/>
<path d="M97.0638 37.7656L83.8114 3.38082V3.35135C82.7107 0.748488 80.9882 0.206665 79.7499 0.206665H78.5666C77.3283 0.206665 75.6113 0.748488 74.5051 3.35135L61.2527 37.7361V37.7656C61.1085 38.1759 61.0358 38.611 61.0381 39.0493C61.0214 39.5104 61.09 39.9705 61.2402 40.403C61.3904 40.8356 61.6191 41.2322 61.9131 41.5697C62.2194 41.9015 62.5872 42.161 62.9929 42.3314C63.3986 42.5018 63.8332 42.5793 64.2686 42.559C64.9358 42.5616 65.5855 42.33 66.1178 41.8995C66.6496 41.4746 67.0657 40.9053 67.323 40.2506L79.172 8.6395L86.2824 27.625L91.01 40.233C91.0775 40.3979 91.1527 40.5591 91.2356 40.7159C91.4837 41.1758 91.8171 41.5766 92.2152 41.8937C92.7485 42.3222 93.3975 42.5536 94.0644 42.5531C94.5006 42.5727 94.9357 42.495 95.3422 42.3247C95.7487 42.1543 96.1176 41.8952 96.4253 41.5638C96.7183 41.2258 96.946 40.8291 97.0952 40.3966C97.2445 39.964 97.3123 39.5041 97.2949 39.0434C97.2917 38.6059 97.2134 38.1728 97.0638 37.7656Z" fill="#D2202C"/>
<path d="M36.0249 37.7656L22.7781 3.38082V3.35135C21.6774 0.748488 19.9548 0.206665 18.711 0.206665H17.5333C16.2896 0.206665 14.578 0.748488 13.4663 3.35135L0.213882 37.7361V37.7656C0.0737066 38.1769 0.00289428 38.6115 0.00474793 39.0493C-0.0186004 39.5123 0.0443322 39.9757 0.189832 40.4124C0.335331 40.8491 0.560515 41.2505 0.852304 41.5933C1.1592 41.9242 1.52716 42.1831 1.93271 42.3534C2.33825 42.5238 2.7725 42.6018 3.2078 42.5826C3.87659 42.5843 4.52768 42.3528 5.06247 41.9231C5.59267 41.4978 6.00686 40.9285 6.26219 40.2742L18.1112 8.66308L25.2217 27.6368L29.9492 40.2565C30.0307 40.4613 30.1282 40.6583 30.2408 40.8454C30.4775 41.2592 30.7858 41.6209 31.1489 41.9113C31.6837 42.341 32.3347 42.5725 33.0035 42.5708C33.4388 42.59 33.8731 42.512 34.2786 42.3416C34.6842 42.1713 35.0521 41.9124 35.359 41.5815C35.6521 41.2435 35.8797 40.8468 36.0289 40.4143C36.1782 39.9817 36.2461 39.5218 36.2286 39.0611C36.2357 38.6195 36.1666 38.1804 36.0249 37.7656Z" fill="#D2202C"/>
</svg>
