<svg width="245" height="76" viewBox="0 0 245 76" fill="none" xmlns="http://www.w3.org/2000/svg">
<path d="M89.783 11.6816H93.8802C94.3407 11.6816 94.7822 11.8627 95.1078 12.185C95.4334 12.5073 95.6163 12.9444 95.6163 13.4001V56.6979C95.6163 56.9873 95.7325 57.2649 95.9392 57.4696C96.146 57.6742 96.4264 57.7892 96.7187 57.7892H122.665C123.125 57.7892 123.567 57.9702 123.892 58.2925C124.218 58.6148 124.401 59.0519 124.401 59.5077V62.5838C124.401 63.0396 124.218 63.4767 123.892 63.799C123.567 64.1213 123.125 64.3023 122.665 64.3023H89.783C89.3226 64.3023 88.881 64.1213 88.5554 63.799C88.2298 63.4767 88.0469 63.0396 88.0469 62.5838V13.4087C88.0458 13.1823 88.0898 12.9579 88.1765 12.7485C88.2633 12.539 88.391 12.3485 88.5523 12.188C88.7136 12.0275 88.9054 11.9002 89.1166 11.8133C89.3278 11.7264 89.5543 11.6816 89.783 11.6816Z" fill="white"/>
<path d="M166.545 51.1648H139.757C139.54 51.1649 139.327 51.2275 139.145 51.3449C138.964 51.4624 138.82 51.6297 138.733 51.8264L133.637 63.2888C133.501 63.5976 133.276 63.8599 132.991 64.0433C132.705 64.2266 132.371 64.3228 132.031 64.32H128.064C127.766 64.3288 127.47 64.2613 127.206 64.1241C126.942 63.987 126.718 63.7847 126.556 63.5368C126.393 63.289 126.298 63.0039 126.28 62.7091C126.261 62.4143 126.32 62.1198 126.45 61.8539L148.95 12.6702C149.088 12.366 149.312 12.1082 149.596 11.9282C149.879 11.7481 150.21 11.6537 150.547 11.6563H155.816C156.151 11.6553 156.48 11.7506 156.762 11.9305C157.044 12.1105 157.267 12.3674 157.404 12.6702L179.974 61.8453C180.099 62.1085 180.154 62.3988 180.135 62.6889C180.115 62.9791 180.022 63.2596 179.863 63.5043C179.704 63.749 179.486 63.9498 179.227 64.0879C178.969 64.2261 178.679 64.297 178.385 64.2942H174.262C173.923 64.2953 173.591 64.1983 173.308 64.0151C173.024 63.8319 172.8 63.5705 172.665 63.2631L167.535 51.8264C167.449 51.6349 167.311 51.4712 167.136 51.3541C166.961 51.237 166.756 51.1714 166.545 51.1648ZM164.062 43.9471L153.932 21.1253C153.863 20.9753 153.752 20.8481 153.612 20.7589C153.472 20.6697 153.309 20.6223 153.142 20.6223C152.976 20.6223 152.813 20.6697 152.673 20.7589C152.533 20.8481 152.421 20.9753 152.352 21.1253L142.205 43.9471C142.147 44.0774 142.123 44.2198 142.135 44.3615C142.147 44.5032 142.194 44.6398 142.273 44.7591C142.351 44.8783 142.458 44.9764 142.584 45.0446C142.71 45.1129 142.851 45.1491 142.995 45.15H163.29C163.432 45.1463 163.571 45.1081 163.695 45.0387C163.819 44.9693 163.923 44.8708 163.999 44.752C164.076 44.6332 164.121 44.4977 164.132 44.3573C164.143 44.2169 164.119 44.0761 164.062 43.9471Z" fill="white"/>
<path d="M188.94 11.6816H193.037C193.498 11.6816 193.939 11.8627 194.265 12.185C194.591 12.5073 194.774 12.9444 194.774 13.4001V62.5924C194.774 63.0482 194.591 63.4853 194.265 63.8076C193.939 64.1299 193.498 64.3109 193.037 64.3109H188.94C188.48 64.3109 188.038 64.1299 187.713 63.8076C187.387 63.4853 187.204 63.0482 187.204 62.5924V13.4087C187.203 13.1823 187.247 12.9579 187.334 12.7485C187.421 12.539 187.548 12.3485 187.71 12.188C187.871 12.0275 188.063 11.9002 188.274 11.8133C188.485 11.7264 188.712 11.6816 188.94 11.6816Z" fill="white"/>
<path d="M212.838 63.081C210.068 62.2337 207.465 60.9262 205.138 59.2143C204.821 58.9732 204.598 58.6313 204.506 58.2462C204.415 57.8611 204.46 57.4564 204.635 57.1006L205.919 54.4283C206.024 54.1944 206.18 53.9866 206.377 53.8201C206.573 53.6536 206.804 53.5326 207.054 53.4659C207.303 53.3992 207.565 53.3885 207.819 53.4346C208.073 53.4807 208.314 53.5824 208.524 53.7323C210.424 55.0435 212.498 56.0901 214.687 56.8428C217.816 57.9734 221.121 58.5549 224.452 58.5613C228.85 58.5613 232.14 57.8195 234.322 56.3358C235.333 55.7124 236.165 54.8419 236.739 53.8081C237.312 52.7743 237.606 51.6119 237.595 50.4328C237.624 49.6164 237.48 48.803 237.172 48.0451C236.864 47.2873 236.399 46.6019 235.806 46.0334C234.542 44.8682 233.038 43.9887 231.397 43.4556C229.661 42.8828 227.192 42.2069 223.992 41.4278C220.703 40.6872 217.466 39.7313 214.305 38.5665C211.871 37.6353 209.706 36.1242 208.003 34.1671C206.267 32.1908 205.399 29.5214 205.399 26.1589C205.365 23.4628 206.145 20.8183 207.638 18.5631C209.328 16.1472 211.689 14.2671 214.435 13.1498C218.011 11.6967 221.856 11.0058 225.72 11.1219C228.85 11.1176 231.967 11.5221 234.99 12.3249C237.281 12.9031 239.481 13.7907 241.527 14.9628C241.893 15.1726 242.169 15.5075 242.303 15.9047C242.438 16.3018 242.421 16.7338 242.256 17.1195L241.075 19.9636C240.983 20.1888 240.844 20.3921 240.667 20.56C240.489 20.728 240.278 20.8568 240.047 20.938C239.815 21.0192 239.569 21.0509 239.325 21.0311C239.08 21.0112 238.842 20.9403 238.628 20.8229C236.892 19.8941 235.062 19.151 233.168 18.606C230.743 17.8816 228.226 17.4998 225.694 17.4718C221.388 17.4718 218.159 18.248 216.006 19.8004C215.004 20.4574 214.184 21.3517 213.62 22.4021C213.056 23.4525 212.766 24.6257 212.777 25.8152C212.746 26.6347 212.893 27.4514 213.207 28.2102C213.522 28.969 213.997 29.6524 214.6 30.2145C215.907 31.3938 217.447 32.292 219.122 32.8524C221.529 33.6465 223.978 34.3091 226.457 34.8373C229.737 35.573 232.962 36.529 236.11 37.6986C238.53 38.6427 240.686 40.1485 242.395 42.0894C244.131 44.0428 244.999 46.675 244.999 49.986C245.028 52.6772 244.239 55.3148 242.733 57.556C241.009 60.0015 238.593 61.8879 235.789 62.9779C232.169 64.399 228.293 65.0744 224.4 64.9628C220.469 64.9578 216.564 64.3223 212.838 63.081Z" fill="white"/>
<path d="M73.8973 35.1215H55.7116L49.1491 20.6087C48.9209 20.0957 48.5464 19.6598 48.0714 19.3545C47.5965 19.0492 47.0418 18.8879 46.4755 18.8902H46.3887C45.8136 18.9119 45.2582 19.1035 44.7941 19.4404C44.3299 19.7773 43.9783 20.2441 43.7846 20.7806L36.2412 41.2308L30.5034 27.0531C30.294 26.534 29.936 26.0867 29.4734 25.7661C29.0108 25.4456 28.4637 25.2657 27.8992 25.2487H27.7777C27.2163 25.2535 26.6682 25.418 26.1987 25.7228C25.7293 26.0275 25.3583 26.4595 25.1301 26.9672L21.3888 35.1473H5.94616C6.60566 27.8389 9.76197 20.9714 14.8945 15.6774C20.027 10.3834 26.8291 6.97916 34.1789 6.0262C41.5287 5.07325 48.9871 6.6285 55.3239 10.4354C61.6607 14.2423 66.4974 20.0735 69.0362 26.9672C69.2996 27.6841 69.8398 28.2682 70.538 28.5912C71.2377 28.9093 72.0355 28.9432 72.7602 28.6857C73.1195 28.5563 73.4495 28.3579 73.7313 28.1021C74.0131 27.8462 74.2411 27.5379 74.4024 27.1947C74.5636 26.8515 74.6549 26.4802 74.6711 26.1021C74.6872 25.7239 74.6278 25.3463 74.4963 24.9909C71.4028 16.5973 65.4219 9.55021 57.6031 5.08609C49.7842 0.621976 40.627 -0.973971 31.738 0.578283C22.8491 2.13054 14.7963 6.73183 8.99263 13.5748C3.18899 20.4178 0.00523242 29.0653 0 38C0 38.378 0.075217 38.7523 0.221357 39.1016C0.367496 39.4508 0.581696 39.7681 0.851727 40.0354C1.12176 40.3027 1.44233 40.5147 1.79514 40.6594C2.14795 40.804 2.5261 40.8785 2.90798 40.8785H23.2899C23.8517 40.8759 24.4008 40.7121 24.8706 40.4072C25.3405 40.1022 25.711 39.669 25.9374 39.16L27.6735 35.4394L33.7499 50.3475C33.964 50.8806 34.335 51.3378 34.8149 51.6595C35.2948 51.9813 35.8613 52.1529 36.4409 52.1519H36.4582C37.0291 52.1278 37.5802 51.9382 38.0432 51.6067C38.5061 51.2752 38.8605 50.8165 39.0624 50.2873L46.736 29.4332L51.2151 39.1772C51.4376 39.6802 51.8012 40.1095 52.2628 40.4141C52.7244 40.7188 53.2646 40.8859 53.8193 40.8957H70.8591C70.1719 48.1826 67.0024 55.0218 61.8709 60.2905C56.7394 65.5593 49.9507 68.9447 42.6192 69.8909C35.2877 70.8372 27.8491 69.2881 21.5243 65.4979C15.1995 61.7077 10.3643 55.9017 7.81248 49.0328C7.67824 48.6744 7.47216 48.3465 7.20663 48.0689C6.9411 47.7913 6.6216 47.5697 6.26734 47.4174C5.92173 47.2556 5.54712 47.1632 5.1652 47.1457C4.78328 47.1281 4.40163 47.1857 4.04237 47.3152C3.6831 47.4447 3.35335 47.6434 3.0722 47.8999C2.79106 48.1564 2.56412 48.4655 2.40451 48.8094C2.24123 49.1512 2.14867 49.5219 2.13227 49.8997C2.11587 50.2775 2.17597 50.6547 2.30902 51.0091C5.40254 59.4027 11.3834 66.4498 19.2023 70.9139C27.0211 75.378 36.1783 76.974 45.0673 75.4217C53.9562 73.8695 62.009 69.2682 67.8127 62.4252C73.6163 55.5822 76.8001 46.9347 76.8053 38C76.8053 37.2366 76.4989 36.5044 75.9536 35.9646C75.4082 35.4248 74.6686 35.1215 73.8973 35.1215Z" fill="white"/>
</svg>
